<?xml version="1.0" encoding="utf-8"?>
<!-- Generator: Adobe Illustrator 18.0.0, SVG Export Plug-In . SVG Version: 6.00 Build 0)  -->
<!DOCTYPE svg PUBLIC "-//W3C//DTD SVG 1.1//EN" "http://www.w3.org/Graphics/SVG/1.1/DTD/svg11.dtd">
<svg version="1.1" id="Layer_1" xmlns="http://www.w3.org/2000/svg" xmlns:xlink="http://www.w3.org/1999/xlink" x="0px" y="0px"
	 viewBox="0 0 100 55" enable-background="new 0 0 100 55" xml:space="preserve">
<polygon fill="#333333" points="72.6,1.1 61.3,12.4 50,1.1 38.7,12.4 27.4,1.1 1,27.5 27.4,53.9 38.7,42.6 50,53.9 61.3,42.6 
	72.6,53.9 99,27.5 "/>
<rect x="14.1" y="14.2" transform="matrix(-0.7071 0.7071 -0.7071 -0.7071 66.1939 27.5816)" fill="#FFFFFF" width="26.7" height="26.7"/>
<rect x="59.3" y="14.2" transform="matrix(0.7071 0.7071 -0.7071 0.7071 40.714 -43.2923)" fill="#FFFFFF" width="26.7" height="26.7"/>
<rect x="22.1" y="22.2" transform="matrix(0.7071 0.7071 -0.7071 0.7071 27.4662 -11.3093)" fill="#333333" width="10.7" height="10.7"/>
<rect x="67.3" y="22.2" transform="matrix(0.7071 0.7071 -0.7071 0.7071 40.714 -43.2922)" fill="#333333" width="10.7" height="10.7"/>
<rect x="44.7" y="33.5" transform="matrix(0.7071 0.7071 -0.7071 0.7071 42.0858 -23.9888)" fill="#FFCC00" width="10.7" height="10.7"/>
<rect x="44.7" y="10.9" transform="matrix(0.7071 0.7071 -0.7071 0.7071 26.0944 -30.6127)" fill="#03A9F4" width="10.7" height="10.7"/>
</svg>
